<svg width="82" height="82" viewBox="0 0 82 82" fill="none" xmlns="http://www.w3.org/2000/svg">
<rect width="82" height="82" rx="18" fill="black"/>
<rect x="5" y="5" width="72" height="72" rx="14" fill="black"/>
<rect x="4.75" y="4.75" width="72.5" height="72.5" rx="14.25" stroke="white" stroke-opacity="0.25" stroke-width="0.5"/>
<g filter="url(#filter0_f_523_448)">
<path d="M13.7467 79.168C8.57127 77.4864 4.51364 73.4287 2.83204 68.2533C2 65.6925 2 62.5284 2 56.2V25.8C2 19.4716 2 16.3075 2.83204 13.7467C3.74923 10.9239 5.37327 8.43359 7.5 6.48M56.2 80C62.5284 80 65.6925 80 68.2533 79.168C73.4287 77.4864 77.4864 73.4287 79.168 68.2533C80 65.6925 80 62.5284 80 56.2V25.8C80 19.4716 80 16.3075 79.168 13.7467C77.4864 8.57127 73.4287 4.51364 68.2533 2.83204C65.6925 2 62.5284 2 56.2 2H25.8C19.4716 2 16.3075 2 13.7467 2.83204" stroke="url(#paint0_linear_523_448)" stroke-linecap="round"/>
</g>
<g filter="url(#filter1_f_523_448)">
<path d="M14.0557 78.2169C11.7068 77.4537 9.60252 76.1705 7.87568 74.5C6.02155 72.7064 4.60256 70.4664 3.78308 67.9443" stroke="url(#paint1_linear_523_448)" stroke-width="0.5" stroke-linecap="round"/>
</g>
<g filter="url(#filter2_f_523_448)">
<path d="M78.2169 67.9443C79 65.5342 79 62.5561 79 56.6V25.4C79 19.4439 79 16.4658 78.2169 14.0557M67.9443 78.2169C71.5524 77.0445 74.5833 74.6451 76.5557 71.5" stroke="url(#paint2_linear_523_448)" stroke-width="0.5" stroke-linecap="round"/>
</g>
<g filter="url(#filter3_f_523_448)">
<path d="M14.0557 4.05574C11.7068 4.81895 9.60252 6.10218 7.87568 7.77264C6.02155 9.56625 4.60256 11.8063 3.78308 14.3284" stroke="url(#paint3_linear_523_448)" stroke-width="0.5" stroke-linecap="round"/>
</g>
<g filter="url(#filter4_f_523_448)">
<rect x="4" y="4" width="74" height="74" rx="15" fill="url(#paint4_radial_523_448)"/>
</g>
<defs>
<filter id="filter0_f_523_448" x="1" y="0.999999" width="80" height="80" filterUnits="userSpaceOnUse" color-interpolation-filters="sRGB">
<feFlood flood-opacity="0" result="BackgroundImageFix"/>
<feBlend mode="normal" in="SourceGraphic" in2="BackgroundImageFix" result="shape"/>
<feGaussianBlur stdDeviation="0.25" result="effect1_foregroundBlur_523_448"/>
</filter>
<filter id="filter1_f_523_448" x="3.03302" y="67.1942" width="11.7728" height="11.7728" filterUnits="userSpaceOnUse" color-interpolation-filters="sRGB">
<feFlood flood-opacity="0" result="BackgroundImageFix"/>
<feBlend mode="normal" in="SourceGraphic" in2="BackgroundImageFix" result="shape"/>
<feGaussianBlur stdDeviation="0.25" result="effect1_foregroundBlur_523_448"/>
</filter>
<filter id="filter2_f_523_448" x="67.1942" y="13.3057" width="12.5558" height="65.6613" filterUnits="userSpaceOnUse" color-interpolation-filters="sRGB">
<feFlood flood-opacity="0" result="BackgroundImageFix"/>
<feBlend mode="normal" in="SourceGraphic" in2="BackgroundImageFix" result="shape"/>
<feGaussianBlur stdDeviation="0.25" result="effect1_foregroundBlur_523_448"/>
</filter>
<filter id="filter3_f_523_448" x="3.03302" y="3.30567" width="11.7728" height="11.7728" filterUnits="userSpaceOnUse" color-interpolation-filters="sRGB">
<feFlood flood-opacity="0" result="BackgroundImageFix"/>
<feBlend mode="normal" in="SourceGraphic" in2="BackgroundImageFix" result="shape"/>
<feGaussianBlur stdDeviation="0.25" result="effect1_foregroundBlur_523_448"/>
</filter>
<filter id="filter4_f_523_448" x="3.5" y="3.5" width="75" height="75" filterUnits="userSpaceOnUse" color-interpolation-filters="sRGB">
<feFlood flood-opacity="0" result="BackgroundImageFix"/>
<feBlend mode="normal" in="SourceGraphic" in2="BackgroundImageFix" result="shape"/>
<feGaussianBlur stdDeviation="0.25" result="effect1_foregroundBlur_523_448"/>
</filter>
<linearGradient id="paint0_linear_523_448" x1="2" y1="49" x2="80" y2="49" gradientUnits="userSpaceOnUse">
<stop stop-color="#4F4F4F"/>
<stop offset="0.700362" stop-color="#0A0A0A"/>
<stop offset="1" stop-color="#676767"/>
</linearGradient>
<linearGradient id="paint1_linear_523_448" x1="4" y1="78.2169" x2="80" y2="78.2169" gradientUnits="userSpaceOnUse">
<stop stop-color="white"/>
<stop offset="0.139975" stop-color="white" stop-opacity="0"/>
<stop offset="0.840841" stop-color="white" stop-opacity="0"/>
<stop offset="1" stop-color="white"/>
</linearGradient>
<linearGradient id="paint2_linear_523_448" x1="67.5" y1="80" x2="78.5" y2="13.5" gradientUnits="userSpaceOnUse">
<stop stop-color="white" stop-opacity="0"/>
<stop offset="0.145833" stop-color="white"/>
<stop offset="0.640625" stop-color="white"/>
<stop offset="1" stop-color="white" stop-opacity="0"/>
</linearGradient>
<linearGradient id="paint3_linear_523_448" x1="3" y1="15" x2="15" y2="2.5" gradientUnits="userSpaceOnUse">
<stop stop-color="white" stop-opacity="0"/>
<stop offset="0.390625" stop-color="white"/>
<stop offset="0.588542" stop-color="white"/>
<stop offset="1" stop-color="white" stop-opacity="0"/>
</linearGradient>
<radialGradient id="paint4_radial_523_448" cx="0" cy="0" r="1" gradientUnits="userSpaceOnUse" gradientTransform="translate(-6 56.5) rotate(8.54116) scale(82.4806)">
<stop stop-color="white" stop-opacity="0.2"/>
<stop offset="1" stop-color="#C4B6B6" stop-opacity="0.07"/>
</radialGradient>
</defs>
</svg>
